<svg width="56" height="64" viewBox="0 0 56 64" fill="none" xmlns="http://www.w3.org/2000/svg">
<g id="fireman">
<path id="Shape" fill-rule="evenodd" clip-rule="evenodd" d="M53.3006 50.2653C52.6261 46.0813 49.7906 42.6482 45.9012 41.3065L37.2642 38.3282V37H35.2568V38.7623L28.2308 49.6661L21.2048 38.7623V37H19.1973V38.3282L10.5613 41.3065C6.67193 42.6482 3.83643 46.0813 3.16193 50.2653L0.94873 64H28.2308H55.5128L53.3006 50.2653ZM10.2592 61.9231H3.31951L3.6417 59.9188L10.3686 60.7891L10.2592 61.9231ZM3.9719 57.8689L10.5683 58.7225L10.7771 56.5584L4.31718 55.7224L3.9719 57.8689ZM27.2271 61.9231H12.2767L13.17 52.6808L11.1726 52.4741L10.9779 54.4919L4.64842 53.6735L5.14225 50.608C5.6933 47.1842 8.01289 44.3752 11.1957 43.2775L18.3592 40.807L14.9034 48.852L27.2271 56.2884V61.9231ZM17.4679 47.9942L27.2271 53.8844V51.8531L20.3777 41.2224L17.4679 47.9942ZM29.2345 51.8531L36.0839 41.2234L38.9937 47.9953L29.2345 53.8844V51.8531ZM43.2916 52.6797L45.289 52.4731L45.4847 54.4919L51.8141 53.6735L51.3203 50.608C50.7683 47.1842 48.4487 44.3752 45.2649 43.2754L38.1014 40.8049L41.5572 48.8499L29.2345 56.2874V61.922H35.2568V53.6144H37.2643V61.922H44.1849L43.2916 52.6797ZM45.6834 56.5584L52.1434 55.7224L52.4886 57.8689L45.8922 58.7225L45.6834 56.5584ZM46.093 60.7891L46.2024 61.9231H53.1421L52.8199 59.9188L46.093 60.7891Z" fill="#86ADEF"/>
<path id="Shape_2" fill-rule="evenodd" clip-rule="evenodd" d="M11.6097 19.5135H10.4007C9.59175 19.5135 8.83023 19.1931 8.25858 18.6108L5.8205 16.1315L7.2486 14.6793L9.68669 17.1585C9.87455 17.3496 10.1351 17.4595 10.4007 17.4595H12.5944V15.4054C12.5944 6.91086 19.3906 0 27.7441 0C36.0976 0 42.8937 6.91086 42.8937 15.4054V17.4595H45.0874C45.353 17.4595 45.6126 17.3496 45.8005 17.1585L48.2385 14.6793L49.6667 16.1315L47.2286 18.6108C46.6569 19.1931 45.8954 19.5135 45.0864 19.5135H43.8775C44.5188 20.3742 44.9137 21.4341 44.9137 22.5946C44.9137 25.2299 42.9442 27.3826 40.4274 27.6722C39.9113 29.4736 38.9609 31.1271 37.6196 32.491L33.6817 36.4964C32.7283 37.4659 31.4598 38 30.1105 38H25.3777C24.0284 38 22.7598 37.4659 21.8064 36.4964L17.8685 32.491C16.5273 31.1271 15.5759 29.4746 15.0608 27.6722C12.5439 27.3826 10.5745 25.2299 10.5745 22.5946C10.5745 21.4341 10.9694 20.3742 11.6097 19.5135ZM36.1916 31.0388C37.9075 29.2928 38.8539 26.9718 38.8539 24.5028V19.5135H16.6344V24.5028C16.6344 26.9718 17.5807 29.2928 19.2967 31.0388L23.2346 35.0442C23.8062 35.6255 24.5677 35.9459 25.3777 35.9459H30.1105C30.9205 35.9459 31.681 35.6255 32.2537 35.0442L36.1916 31.0388ZM20.8055 9.72902L27.7441 5.31897L34.6826 9.72902L32.9939 17.4595H22.4942L20.8055 9.72902ZM40.8263 25.5011C42.0231 25.0903 42.8937 23.9493 42.8937 22.5946C42.8937 21.2574 42.0464 20.1277 40.8738 19.7025V24.5028C40.8738 24.8387 40.8546 25.1714 40.8263 25.5011ZM14.6144 15.4054H17.6443V13.3514H14.7861C15.7627 6.96327 21.1934 2.05408 27.7441 2.05408C34.2948 2.05408 39.7255 6.96327 40.7021 13.3514H37.8439V15.4054H40.8738V17.4595H35.0634L36.9652 8.75748L27.7441 2.89727L18.523 8.75748L20.4248 17.4595H14.6144V15.4054ZM14.6144 24.5028V19.7025C13.4418 20.1277 12.5945 21.2574 12.5945 22.5946C12.5945 23.9493 13.4651 25.0903 14.6619 25.5021C14.6336 25.1714 14.6144 24.8387 14.6144 24.5028Z" fill="#86ADEF"/>
<rect id="Rectangle" x="24.3333" y="13" width="7.79487" height="2" fill="#86ADEF"/>
<rect id="Rectangle_2" x="34.0769" y="45" width="1.94872" height="2" fill="#86ADEF"/>
<rect id="Rectangle_3" x="31.1539" y="58" width="1.94872" height="2" fill="#86ADEF"/>
<rect id="Rectangle_4" x="25.3077" y="40" width="5.84615" height="2" fill="#86ADEF"/>
</g>
</svg>
