<svg width="63" height="64" viewBox="0 0 63 64" fill="none" xmlns="http://www.w3.org/2000/svg">
<g id="plug">
<path id="Shape" fill-rule="evenodd" clip-rule="evenodd" d="M10.8468 48.4343C12.2649 48.4343 13.5983 48.9839 14.6012 49.982C16.6714 52.0424 16.6714 55.3945 14.6012 57.4549C13.5661 58.4849 12.2065 59 10.8468 59C9.48713 59 8.12756 58.4849 7.09243 57.4549C5.22081 55.592 5.04173 52.6733 6.55456 50.608C2.74728 45.3333 0.680785 39.1198 0.568876 32.5697C0.451328 25.6869 2.49978 19.1008 6.49278 13.5235C6.89443 12.9626 7.67691 12.8319 8.24059 13.2316C8.80427 13.6313 8.93561 14.41 8.53409 14.971C1.29522 25.0819 1.32003 38.9038 8.47356 48.9903C9.20153 48.6276 10.0091 48.4343 10.8468 48.4343ZM8.86469 55.691C9.95759 56.7786 11.7357 56.7786 12.8289 55.691C13.9219 54.6033 13.9219 52.8334 12.8288 51.7456C12.2994 51.2187 11.5954 50.9285 10.8467 50.9285C10.0981 50.9285 9.39416 51.2187 8.86469 51.7456C7.77167 52.8333 7.77167 54.6032 8.86469 55.691Z" fill="#86ADEF"/>
<path id="Shape_2" fill-rule="evenodd" clip-rule="evenodd" d="M48.3243 56.3694C48.8701 55.9655 49.6317 56.0914 50.0254 56.6501C50.4195 57.2089 50.297 57.9892 49.7514 58.393C45.9708 61.1914 41.7213 63.0453 37.1208 63.9031C36.7728 63.968 36.4233 64 36.0761 64C34.7323 64 33.424 63.5213 32.3742 62.624C31.0588 61.4996 30.3044 59.8481 30.3044 58.0928V48.943H30.1671C28.7561 48.943 27.608 47.7671 27.608 46.3215V44.2139C23.4803 42.5998 20.5402 38.5022 20.5402 33.7137V27.8036C18.5763 27.2541 17.1282 25.4115 17.1282 23.2279C17.1282 20.824 18.8833 18.8334 21.1495 18.5267V10.7449C21.1495 8.67997 22.7895 7 24.8053 7C26.8211 7 28.4611 8.67997 28.4611 10.7449V18.4844H34.554V10.7449C34.554 8.67997 36.194 7 38.2098 7C40.2256 7 41.8655 8.67997 41.8655 10.7449V18.5267C44.1317 18.8334 45.8869 20.8241 45.8869 23.2279C45.8869 25.4115 44.4387 27.2541 42.4748 27.8036V33.7137C42.4748 38.5022 39.5347 42.5998 35.407 44.2139V46.3214C35.407 47.7669 34.259 48.9428 32.848 48.9428H32.7416V58.0927C32.7416 59.1054 33.1767 60.0584 33.9357 60.707C34.7001 61.3603 35.702 61.6301 36.6845 61.4468C40.9244 60.6563 44.8406 58.948 48.3243 56.3694ZM38.2099 9.49658C37.538 9.49658 36.9913 10.0566 36.9913 10.7449V18.4844H39.4285V10.7449C39.4285 10.0566 38.8819 9.49658 38.2099 9.49658ZM23.5868 10.7449C23.5868 10.0566 24.1335 9.49658 24.8054 9.49658C25.4774 9.49658 26.024 10.0566 26.024 10.7449V18.4844H23.5868V10.7449ZM21.759 20.981C20.5495 20.981 19.5655 21.989 19.5655 23.2279C19.5655 24.4668 20.5495 25.4748 21.759 25.4748H41.2564C42.4659 25.4748 43.4499 24.4668 43.4499 23.2279C43.4499 21.989 42.4659 20.981 41.2564 20.981H21.759ZM22.9776 33.7136V27.9714H40.0379V33.7136C40.0379 38.5318 36.2112 42.4517 31.5077 42.4517C26.8042 42.4517 22.9776 38.5318 22.9776 33.7136ZM31.54 46.4456C31.5446 46.4459 31.5492 46.4462 31.5538 46.4463H32.8481C32.9154 46.4463 32.97 46.3903 32.97 46.3215V44.8483C32.4914 44.9139 32.0034 44.9484 31.5077 44.9484C31.0119 44.9484 30.5239 44.9139 30.0453 44.8483V46.3215C30.0453 46.3903 30.0999 46.4463 30.1674 46.4463H31.4927C31.5029 46.4461 31.513 46.4447 31.5233 46.4447C31.5289 46.4447 31.5345 46.4451 31.54 46.4456Z" fill="#86ADEF"/>
<path id="Path" d="M53.6901 53.403C53.1115 52.8486 52.2099 52.87 51.6566 53.444C51.6454 53.4557 51.6341 53.4677 51.6235 53.4792C51.0732 54.0843 51.1052 55.0323 51.6946 55.5971C51.9761 55.8666 52.3336 56 52.6904 56C53.0675 56 53.4438 55.8509 53.728 55.556C53.7393 55.5443 53.7505 55.5323 53.7612 55.5208C54.3114 54.9158 54.2794 53.9677 53.6901 53.403Z" fill="#86ADEF"/>
<path id="Path_2" d="M62.8406 29.9944C62.2986 22.2381 59.0882 14.9341 53.8012 9.42814C48.6047 4.01616 41.663 0.70347 34.255 0.100506C26.9372 -0.495363 19.6542 1.57263 13.7452 5.92299C13.1965 6.32691 13.0662 7.11764 13.4541 7.68893C13.8418 8.26022 14.6012 8.39617 15.1498 7.99212C26.4492 -0.326599 42.326 1.06089 52.0807 11.2199C62.1614 21.7184 63.3804 38.0215 54.9788 49.985C54.5822 50.5498 54.7004 51.3424 55.2427 51.7556C55.4593 51.9206 55.7108 52 55.9601 52C56.3349 52 56.7048 51.8202 56.9431 51.4808C61.2827 45.3011 63.3772 37.6705 62.8406 29.9944Z" fill="#86ADEF"/>
<path id="Path_3" d="M11.8272 9.43109C11.2585 8.85283 10.3406 8.8567 9.77696 9.44046L9.75333 9.46515C9.1897 10.0486 9.19391 10.9906 9.76247 11.569C10.0452 11.8564 10.4141 12 10.783 12C11.156 12 11.5292 11.853 11.8127 11.5596L11.8364 11.535C12.4 10.9515 12.3958 10.0095 11.8272 9.43109Z" fill="#86ADEF"/>
<path id="Path_4" d="M34.5003 32.6514C34.2812 32.2731 33.8789 32.0405 33.444 32.0405H32.5703L34.1795 29.9945C34.5986 29.4616 34.5091 28.6876 33.9797 28.2658C33.4503 27.8439 32.6813 27.9341 32.2622 28.4668L29.0845 32.5073C28.7935 32.8774 28.7384 33.3823 28.9425 33.8071C29.1467 34.2319 29.5742 34.5018 30.0431 34.5018H31.3464L29.8492 37.1627C29.5164 37.7541 29.723 38.505 30.3104 38.8399C30.5008 38.9484 30.7076 39 30.9119 39C31.3382 38.9999 31.752 38.7753 31.977 38.3756L34.5078 33.8776C34.7223 33.4966 34.7193 33.0297 34.5003 32.6514Z" fill="#86ADEF"/>
</g>
</svg>
