<svg width="65" height="66" viewBox="0 0 65 66" fill="none" xmlns="http://www.w3.org/2000/svg">
<g id="curve">
<path id="Shape" fill-rule="evenodd" clip-rule="evenodd" d="M30.9857 6.70271C31.9043 5.76486 33.5344 5.76757 34.4477 6.7L58.7959 31.7043C59.2525 32.176 59.5128 32.8235 59.5128 33.4833C59.5128 34.1431 59.2525 34.7907 58.7984 35.2595L34.4502 60.2638C33.9909 60.7326 33.3604 61 32.7179 61C32.0755 61 31.4448 60.7326 30.9883 60.2663L6.64003 35.2621C6.18347 34.7904 5.9231 34.1429 5.9231 33.4832C5.9231 32.8234 6.18347 32.1758 6.63751 31.7069L30.9857 6.70271ZM8.69695 33.4832L32.7181 58.1515L56.7393 33.4832L32.7181 8.81482L8.69695 33.4832Z" fill="#86ADEF"/>
<path id="Shape_2" fill-rule="evenodd" clip-rule="evenodd" d="M21.628 20.9689C21.4435 20.5355 21.4828 20.035 21.7287 19.6372C21.976 19.2393 22.3987 19 22.8526 19H36.25C36.7445 19 37.1985 19.2843 37.4314 19.7396C37.6643 20.1949 37.6381 20.7472 37.3647 21.1765L35.4715 24.1433L37.5792 25.6117C40.9416 27.9565 42.9486 31.8748 42.9486 36.0953V45.6C42.9486 46.3738 42.3494 47 41.6088 47H36.2499C35.5094 47 34.9101 46.3738 34.9101 45.6V36.0955C34.9101 34.6887 34.2403 33.383 33.1203 32.601L31.0126 31.1326L29.3262 33.7767C29.0554 34.2005 28.5857 34.4411 28.0977 34.3947C27.611 34.3523 27.1858 34.035 26.9869 33.5688L21.628 20.9689ZM32.4992 23.7551L33.746 21.8H24.915L28.4475 30.1071L29.5269 28.4145C29.7245 28.1055 30.0305 27.8908 30.3786 27.8184C30.7291 27.7445 31.0902 27.8197 31.3846 28.0261L34.607 30.271C36.4753 31.5739 37.59 33.7505 37.59 36.0952V44.1999H40.2694V36.0952C40.2694 32.8127 38.7086 29.7652 36.0932 27.9413L32.8708 25.6965C32.5752 25.49 32.3697 25.1701 32.3004 24.8065C32.231 24.4414 32.3016 24.0641 32.4992 23.7551Z" fill="#86ADEF"/>
<path id="Shape_3" fill-rule="evenodd" clip-rule="evenodd" d="M37.7519 2.34713L62.0977 27.3335C63.5512 28.8254 64.3846 30.8904 64.3846 33C64.3846 35.1096 63.5512 37.1746 62.0975 38.6666L37.7519 63.6529C36.2983 65.1447 34.2862 66 32.2308 66C30.1753 66 28.1632 65.1447 26.7095 63.6527L2.36385 38.6665C0.910267 37.1746 0.0769043 35.1096 0.0769043 33C0.0769043 30.8904 0.910267 28.8254 2.36385 27.3335L26.7096 2.34713C28.1634 0.855035 30.1979 -0.000386457 32.2323 1.30975e-07C34.2656 0.000386981 36.2987 0.85568 37.7519 2.34713ZM35.8575 61.7085L60.2031 36.7222C61.1583 35.742 61.7051 34.3858 61.7051 33C61.7051 31.6143 61.1582 30.2581 60.2031 29.2779L35.8575 4.29158C34.9025 3.31138 33.581 2.75012 32.2308 2.75012C30.8806 2.75012 29.5592 3.31138 28.6041 4.29158L4.25834 29.2779C3.30327 30.2581 2.75641 31.6143 2.75641 33C2.75641 34.3858 3.3034 35.742 4.25847 36.7222L28.6041 61.7085C30.5142 63.6689 33.9474 63.6689 35.8575 61.7085Z" fill="#86ADEF"/>
</g>
</svg>
