<svg width="77" height="67" viewBox="0 0 77 67" fill="none" xmlns="http://www.w3.org/2000/svg">
<g id="tracktor">
<path id="Shape" fill-rule="evenodd" clip-rule="evenodd" d="M24.742 20C25.8555 20 26.8453 20.8 27.0928 21.8667L28.825 28.5333C29.0725 29.3333 28.9487 30.1333 28.4538 30.9333C28.0826 31.6 27.3403 32 26.5979 32H15.8336C14.4726 32 13.359 30.8 13.359 29.3333V22.6667C13.359 21.2 14.4726 20 15.8336 20H24.742ZM15.8335 22.6666V29.3333H26.5978L24.7419 22.6666H15.8335Z" fill="#86ADEF"/>
<path id="Path" d="M18.718 59C17.8411 59 17.2565 59.6 17.2565 60.5C17.2565 61.4 17.8411 62 18.718 62C19.595 62 20.1795 61.4 20.1795 60.5C20.1795 59.6 19.595 59 18.718 59Z" fill="#86ADEF"/>
<path id="Path_2" d="M24.5641 59C23.6871 59 23.1025 59.6 23.1025 60.5C23.1025 61.4 23.6871 62 24.5641 62C25.441 62 26.0256 61.4 26.0256 60.5C26.0256 59.6 25.441 59 24.5641 59Z" fill="#86ADEF"/>
<path id="Path_3" d="M31.3845 59C30.5076 59 29.923 59.6 29.923 60.5C29.923 61.4 30.5076 62 31.3845 62C32.2615 62 32.8461 61.4 32.8461 60.5C32.8461 59.6 32.2615 59 31.3845 59Z" fill="#86ADEF"/>
<path id="Path_4" d="M37.2308 59C36.3539 59 35.7693 59.6 35.7693 60.5C35.7693 61.4 36.3539 62 37.2308 62C38.1078 62 38.6924 61.4 38.6924 60.5C38.6924 59.6 38.1078 59 37.2308 59Z" fill="#86ADEF"/>
<path id="Path_5" d="M44.0514 59C43.1744 59 42.5898 59.6 42.5898 60.5C42.5898 61.4 43.1744 62 44.0514 62C44.9283 62 45.5129 61.4 45.5129 60.5C45.5129 59.6 44.9283 59 44.0514 59Z" fill="#86ADEF"/>
<path id="Shape_2" fill-rule="evenodd" clip-rule="evenodd" d="M53.4452 54.0496H55.1589C58.7056 54.0496 61.4924 56.8986 61.4924 60.5248C61.4924 64.151 58.7056 67 55.159 67H7.02564C3.47888 67 0.692261 64.151 0.692261 60.5248C0.692261 56.8986 3.47888 54.0496 7.02564 54.0498V39.8044V37.2143V17.7889C7.02564 14.9399 9.30564 12.6088 12.0923 12.6088H15.8924V10.0187C15.8924 7.16969 18.1724 4.83864 20.959 4.83864C23.7456 4.83864 26.0256 7.16969 26.0256 10.0187V12.6088H29.319C31.7256 12.6088 33.7524 14.2923 34.259 16.6234L36.8107 28.2977L61.3656 1.73042C63.2656 -0.341571 66.4323 -0.600627 68.5856 1.21246C69.7256 2.11893 70.4856 3.54351 70.6123 5.09755C70.6746 5.86303 70.5826 6.59695 70.3528 7.28412C70.3568 7.33132 70.3589 7.37943 70.3589 7.4286V24.3749C73.9413 24.9963 76.6923 28.2018 76.6923 32.0342C76.6923 33.7177 76.1856 35.4014 75.1723 36.6963C74.9189 37.0848 74.5389 37.2143 74.1589 37.2143C73.9059 37.2143 73.6531 37.0851 73.4002 36.9559L73.3989 36.9552C72.8921 36.5667 72.7655 35.6601 73.1455 35.1422C73.7789 34.2357 74.1589 33.1996 74.1589 32.0341C74.1589 29.1851 71.8789 26.854 69.0923 26.854C66.3056 26.854 64.0256 29.1851 64.0256 32.0341C64.0256 33.1996 64.4056 34.2357 65.039 35.1422C65.419 35.6603 65.2924 36.5667 64.7856 36.9552C64.2789 37.3438 63.3923 37.2141 63.0123 36.6962C61.9989 35.4012 61.4923 33.7176 61.4923 32.0341C61.4923 28.2017 64.2432 24.9962 67.8256 24.3747V10.7233L42.9158 37.2141H54.9056C56.0456 37.2141 56.9323 37.7321 57.5656 38.7682C58.0723 39.6748 58.1989 40.8403 57.6923 41.7468L53.4452 54.0496ZM12.1225 64.4099H50.0622C49.2829 63.334 48.8257 61.9933 48.8257 60.5249C48.8257 59.0564 49.2829 57.7158 50.0622 56.6398H12.1225C12.9018 57.7158 13.359 59.0564 13.359 60.5249C13.359 61.9933 12.9018 63.334 12.1225 64.4099ZM63.2658 3.67299C64.2791 2.63692 65.9258 2.50746 67.0658 3.41393C67.6991 3.80244 68.0791 4.57946 68.0791 5.35648C68.0791 6.13349 67.8258 6.91051 67.3191 7.42847L39.4524 37.2143H38.819L37.9117 33.3353L37.4516 31.2296L63.2658 3.67299ZM20.9591 7.42859C19.5657 7.42859 18.4257 8.59411 18.4257 10.0187H18.4258V12.6088H23.4924V10.0187C23.4924 8.59411 22.3524 7.42859 20.9591 7.42859ZM9.55896 17.7888C9.55896 16.3643 10.699 15.1987 12.0923 15.1987H15.8923H26.0257H29.1923C30.459 15.1987 31.4723 16.1052 31.7257 17.2707L36.1591 37.2141H9.55911V17.7888H9.55896ZM37.4256 50.1645H9.55896V54.0499H50.3456C50.5988 54.0499 50.7256 53.9203 50.8522 53.7908L55.4122 40.711C55.5388 40.4521 55.4122 40.193 55.4122 40.193C55.4122 40.0634 55.159 39.934 54.9056 39.934H9.55896V42.3945H29.8256C30.5856 42.3945 31.0922 42.9124 31.0922 43.6894C31.0922 44.4665 30.5856 44.9844 29.8256 44.9844H9.55896V47.5745H37.4256C38.1856 47.5745 38.6922 48.0925 38.6922 48.8695C38.6922 49.6465 38.1856 50.1645 37.4256 50.1645ZM3.22582 60.5249C3.22582 58.3233 4.87244 56.6398 7.02582 56.6398C9.1792 56.6398 10.8258 58.3233 10.8258 60.5249C10.8258 62.7265 9.1792 64.4099 7.02582 64.4099C4.87244 64.4099 3.22582 62.7263 3.22582 60.5249ZM51.359 60.5249C51.359 62.7265 53.0056 64.4099 55.159 64.4099C57.3124 64.4099 58.959 62.7265 58.959 60.5249C58.959 58.3233 57.3124 56.6398 55.159 56.6398C53.0056 56.6398 51.359 58.3233 51.359 60.5249Z" fill="#86ADEF"/>
<path id="Shape_3" fill-rule="evenodd" clip-rule="evenodd" d="M75.4145 40.6002L76.6461 45.7359C76.7692 46.1211 76.6461 46.6347 76.2768 46.8913L72.5816 50.7432C72.3354 50.8717 72.089 51 71.7195 51H71.4731L65.3145 49.7161C64.8217 49.5878 64.4522 49.2026 64.3291 48.8174L63.0974 43.6817C62.9743 43.2965 63.0974 42.783 63.467 42.5261L68.3937 37.3904C68.7632 37.0053 69.3791 36.8768 69.8718 37.1336L74.7986 39.7015C75.1681 39.8299 75.4145 40.2151 75.4145 40.6002ZM66.5462 47.2766L71.3499 48.3038L74.0598 45.4791L73.0743 41.6273L69.5023 39.7014L65.6841 43.6816L66.5462 47.2766Z" fill="#86ADEF"/>
</g>
</svg>
