<svg width="65" height="66" viewBox="0 0 65 66" fill="none" xmlns="http://www.w3.org/2000/svg">
<g id="crane">
<path id="Shape" fill-rule="evenodd" clip-rule="evenodd" d="M55.2513 31.9C55.2513 32.5075 54.7714 33 54.1795 33H52.0359V35.3386C53.1937 35.641 54.175 36.4272 54.7419 37.5064C55.8607 39.637 55.085 42.295 53.0091 43.4434L61.054 51.7H63.8256C64.4175 51.7 64.8974 52.1925 64.8974 52.8V62.7C64.8974 63.3075 64.4175 63.8 63.8256 63.8H38.1025C37.5106 63.8 37.0308 63.3075 37.0308 62.7V52.8C37.0308 52.1925 37.5106 51.7 38.1025 51.7H40.8742L48.9191 43.4434C47.5425 42.6802 46.6824 41.2059 46.6769 39.6V38.5H48.8205V39.6C48.8205 40.8151 49.7802 41.8 50.9641 41.8C52.148 41.8 53.1077 40.8151 53.1077 39.6C53.1077 38.3849 52.148 37.4 50.9641 37.4C50.3722 37.4 49.8923 36.9075 49.8923 36.3V33H47.7487C47.1568 33 46.6769 32.5075 46.6769 31.9V16.5H25.241V36.9446L29.2141 41.0223C29.4151 41.2286 29.5282 41.5082 29.5282 41.8V59.4H31.6718V66H10.2359V59.4H12.3795V41.8C12.3795 41.5082 12.4925 41.2286 12.6935 41.0223L16.6666 36.9446V16.5011H1.66152C1.06962 16.5011 0.589722 16.0086 0.589722 15.4011V11.0011C0.589722 10.9946 0.591587 10.9886 0.593458 10.9825L0.593458 10.9825C0.595339 10.9765 0.597224 10.9704 0.597224 10.9637C0.600038 10.8337 0.625493 10.7051 0.67225 10.5842V10.571C0.724366 10.451 0.796846 10.3414 0.886609 10.2476C0.918495 10.2177 0.952122 10.1898 0.987358 10.164C1.03291 10.1184 1.08235 10.0771 1.13527 10.0408L18.284 0.140853C18.2968 0.133667 18.309 0.129415 18.322 0.124902C18.3328 0.121125 18.3442 0.117167 18.3569 0.111153C18.3822 0.0991441 18.4067 0.0898665 18.4327 0.0800072L18.4405 0.077053C18.5582 0.028928 18.6835 0.00294053 18.8102 5.30357e-05H23.0974C23.1797 -0.000771964 23.2617 0.00802803 23.3418 0.026453L64.07 9.92645C64.0881 9.93078 64.1038 9.93931 64.1197 9.94789C64.132 9.95455 64.1443 9.96124 64.1579 9.96605C64.2162 9.98653 64.2724 10.0122 64.3261 10.043C64.5089 10.1422 64.6583 10.2955 64.7549 10.483C64.7835 10.5347 64.8079 10.5888 64.8277 10.6447C64.8516 10.7208 64.867 10.7994 64.8738 10.879C64.884 10.9189 64.8919 10.9592 64.8974 11V15.4C64.8974 16.0075 64.4175 16.5 63.8256 16.5H55.2513V31.9ZM62.7538 12.1H55.2512V14.3H62.7538V12.1ZM62.7538 53.9V61.6H39.1743V53.9H62.7538ZM50.9641 44.4556L43.9052 51.7H58.0229L50.9641 44.4556ZM53.1077 26.4001H48.8205V16.5001H53.1077V26.4001ZM48.8205 14.3H53.1077V12.1H48.8205V14.3ZM19.882 2.20007H22.0256V9.90007H19.882V2.20007ZM23.0975 12.1H18.8103V14.3H22.6537L23.0975 13.8446V12.1ZM23.0974 24.8446L19.254 20.9L23.0974 16.9554V24.8446ZM20.5101 16.5001H18.8103V18.2447L20.5101 16.5001ZM18.8103 23.5555L22.6537 27.5L18.8103 31.4446V23.5555ZM23.0974 37.4V30.1556L19.254 34.1L23.0974 38.0446V37.4ZM18.8103 37.4V36.7554L22.6537 40.7L18.8103 44.6446V37.4ZM23.0974 51.2447V43.3555L19.254 47.3L23.0974 51.2447ZM18.8103 49.9556L22.6537 53.9L18.8103 57.8446V49.9556ZM23.0974 59.4V56.5555L20.3257 59.4H23.0974ZM17.7385 2.98108V9.90007H5.75262L17.7385 2.98108ZM2.73333 12.1V14.3H16.6667V12.1H2.73333ZM14.5231 42.2555L16.6667 40.0555V59.4H14.5231V42.2555ZM29.5282 63.8V61.6H12.3795V63.8H29.5282ZM27.3846 42.2555V59.4H25.241V40.0555L27.3846 42.2555ZM25.241 14.3H46.6769V12.1H25.241V14.3ZM24.1692 9.90007V2.49048L54.65 9.90007H54.1795H24.1692ZM48.8205 28.6V30.8H53.1077V28.6H48.8205Z" fill="#86ADEF"/>
</g>
</svg>
