<svg width="65" height="66" viewBox="0 0 65 66" fill="none" xmlns="http://www.w3.org/2000/svg">
<g id="excavator">
<path id="Shape" fill-rule="evenodd" clip-rule="evenodd" d="M33.4734 22H38.0075C38.5836 22 39.0512 22.4848 39.0512 23.0831V33.9169C39.0512 34.5152 38.5836 35 38.0075 35H25.4799C24.9037 35 24.4358 34.5152 24.4358 33.9169V31.3782C24.4362 31.0913 24.5459 30.8156 24.742 30.6124L32.7356 22.3174C32.9309 22.1139 33.1966 22 33.4734 22ZM26.524 32.8334H36.9631V24.1666H33.9058L26.524 31.8273V32.8334Z" fill="#86ADEF"/>
<path id="Shape_2" fill-rule="evenodd" clip-rule="evenodd" d="M32.2307 57.5C32.2307 55.0146 34.1937 53 36.6155 53C39.037 53 40.9999 55.0146 40.9999 57.5C40.9999 59.9854 39.037 62 36.6155 62C34.1937 62 32.2307 59.9854 32.2307 57.5ZM34.423 57.5C34.423 58.7425 35.4049 59.7498 36.6156 59.7498C37.8263 59.7498 38.8078 58.7425 38.8078 57.5C38.8078 56.2575 37.8263 55.2502 36.6156 55.2502C35.4049 55.2502 34.423 56.2575 34.423 57.5Z" fill="#86ADEF"/>
<path id="Shape_3" fill-rule="evenodd" clip-rule="evenodd" d="M45.8718 57.5C45.8718 55.0146 47.8348 53 50.2562 53C52.6781 53 54.6411 55.0146 54.6411 57.5C54.6411 59.9854 52.6781 62 50.2562 62C47.8348 62 45.8718 59.9854 45.8718 57.5ZM48.064 57.5C48.064 58.7425 49.0455 59.7498 50.2562 59.7498C51.4673 59.7498 52.4484 58.7425 52.4484 57.5C52.4484 56.2575 51.4673 55.2502 50.2562 55.2502C49.0455 55.2502 48.064 56.2575 48.064 57.5Z" fill="#86ADEF"/>
<path id="Shape_4" fill-rule="evenodd" clip-rule="evenodd" d="M20.5383 57.5C20.5383 55.0146 22.5012 53 24.9229 53C27.3447 53 29.3076 55.0146 29.3076 57.5C29.3076 59.9854 27.3447 62 24.9229 62C22.5012 62 20.5383 59.9854 20.5383 57.5ZM22.7309 57.5C22.7309 58.7425 23.7124 59.7498 24.923 59.7498C26.1337 59.7498 27.1152 58.7425 27.1152 57.5C27.1152 56.2575 26.1337 55.2502 24.923 55.2502C23.7124 55.2502 22.7309 56.2575 22.7309 57.5Z" fill="#86ADEF"/>
<path id="Shape_5" fill-rule="evenodd" clip-rule="evenodd" d="M63.3127 46.2C63.905 46.2 64.3846 45.7073 64.3846 45.1003V34.1001C64.3846 33.4923 63.905 33 63.3127 33H42.9484V18.6999C42.9484 18.0928 42.4688 17.5997 41.8769 17.5997H31.1588C30.8747 17.6001 30.6023 17.7162 30.4013 17.9224L27.9438 20.4445L8.33713 0.322266C8.13656 0.116418 7.86377 0 7.5796 0H1.14883C0.556543 0 0.0769043 0.492261 0.0769043 1.10013V38.5003C0.0769043 38.8676 0.255886 39.2113 0.553795 39.4151L10.1999 46.0155C10.6925 46.3523 11.3578 46.2161 11.6868 45.7102C11.7547 45.6054 11.8049 45.4898 11.8343 45.3673L15.0501 32.1669L16.122 27.7672C16.2618 27.1771 15.9085 26.5821 15.3335 26.4387C14.764 26.2965 14.189 26.6506 14.0426 27.2323L13.1743 30.8001H5.61277L8.31711 12.7412L21.8836 26.6639L19.6832 28.9225C19.4823 29.1284 19.3692 29.4083 19.3688 29.7V43.9997H18.2973C17.705 43.9997 17.2254 44.4924 17.2254 45.1003V50.688C13.1292 51.3285 10.3138 55.2557 10.9379 59.4596C11.4929 63.1987 14.6117 65.971 18.2973 66H56.8819C61.0252 65.9674 64.3587 62.4933 64.3265 58.2411C64.2982 54.4585 61.5974 51.2572 57.9538 50.688V46.2H63.3127ZM62.2413 35.1999V43.9998H42.9486V35.1999H62.2413ZM2.22033 37.9113L10.1242 43.3189L12.6374 33H2.22033V37.9113ZM8.3371 9.65027C7.92105 9.21843 7.24241 9.2144 6.82165 9.64181C6.6568 9.80898 6.54925 10.0261 6.51549 10.2606L3.44455 30.8002H2.22033V2.19989H7.13565L26.428 22.0003L23.399 25.1085L8.3371 9.65027ZM24.1569 27.4413L21.513 30.1556V43.9997H40.8049V19.8H31.6027L28.7013 22.7777L24.1569 27.4413ZM62.2411 58.2999C62.2375 61.336 59.8401 63.7965 56.8818 63.8001H18.2972C15.3377 63.8001 12.9384 61.3376 12.9384 58.2999C12.9384 55.2625 15.3377 52.8 18.2972 52.8H56.8818C59.8401 52.8036 62.2375 55.2641 62.2411 58.2999ZM19.3693 50.5997H55.8105V46.2H19.3693V50.5997Z" fill="#86ADEF"/>
</g>
</svg>
