<svg width="65" height="66" viewBox="0 0 65 66" fill="none" xmlns="http://www.w3.org/2000/svg">
<g id="settings">
<path id="Shape" fill-rule="evenodd" clip-rule="evenodd" d="M27.8195 39.501C27.8195 33.1598 32.846 28.001 39.0246 28.001C45.2031 28.001 50.2297 33.1598 50.2297 39.501C50.2297 45.8421 45.2031 51.001 39.0246 51.001C32.846 51.001 27.8195 45.8421 27.8195 39.501ZM30.3661 39.501C30.3661 44.401 34.2502 48.3874 39.0246 48.3874C43.7991 48.3874 47.6832 44.401 47.6832 39.501C47.6832 34.6009 43.7991 30.6146 39.0246 30.6146C34.2502 30.6146 30.3661 34.6009 30.3661 39.501Z" fill="#86ADEF"/>
<path id="Shape_2" fill-rule="evenodd" clip-rule="evenodd" d="M63.5975 58.5408L60.1518 55.0043C59.6617 54.5013 58.8664 54.5008 58.3757 55.0043C57.8851 55.5074 57.8851 56.3237 58.3757 56.8272L61.8214 60.3642C62.1516 60.7026 62.3331 61.1527 62.3331 61.6316C62.3331 62.1105 62.1516 62.5612 61.8214 62.8996C61.1404 63.5985 60.0321 63.599 59.3511 62.8996L49.7127 53.0072C53.4238 49.9325 55.8024 45.2278 55.8024 39.9631C55.8024 34.2644 53.0156 29.2213 48.7682 26.1924V20.5551C48.7682 19.8431 48.206 19.266 47.5122 19.266H44.3398C43.8845 17.5423 43.2187 15.8942 42.3513 14.3448L44.5964 12.0405C45.0866 11.5369 45.0866 10.7207 44.5964 10.2171L38.8139 4.28271C38.3237 3.77915 37.5284 3.77915 37.0378 4.28271L34.7927 6.58698C33.283 5.69669 31.6772 5.01337 29.9973 4.54607V1.29008C29.9973 0.578051 29.435 0.000976562 28.7413 0.000976562H20.564C19.8707 0.000976562 19.308 0.578051 19.308 1.29008V4.53952C17.6256 5.00531 16.0163 5.68813 14.5042 6.57791L12.2679 4.28271C11.7778 3.77966 10.9825 3.77966 10.4918 4.28271L4.70978 10.2176C4.21915 10.7207 4.21915 11.5369 4.70978 12.0405L6.93969 14.3296C6.06784 15.8831 5.39912 17.5368 4.94234 19.266H1.79349C1.09974 19.266 0.537476 19.8431 0.537476 20.5551V28.9479C0.537476 29.6599 1.09974 30.237 1.79349 30.237H4.93596C5.39127 31.9697 6.05901 33.6264 6.93086 35.1829L4.70929 37.4625C4.21915 37.966 4.21915 38.7823 4.70929 39.2859L10.4918 45.2203C10.982 45.7238 11.7773 45.7238 12.2679 45.2203L14.489 42.9407C16.006 43.835 17.6197 44.5208 19.308 44.9876V48.2134C19.308 48.9254 19.8702 49.5025 20.564 49.5025H26.0575C29.0087 53.8618 33.9218 56.7215 39.4743 56.7215C42.4328 56.7215 45.2102 55.9092 47.6059 54.4917L57.5745 64.723C58.4047 65.575 59.4954 66.001 60.586 66.001C61.6767 66.001 62.7674 65.575 63.5975 64.723C64.4021 63.8971 64.8452 62.7994 64.8452 61.6316C64.8452 60.4644 64.4021 59.3661 63.5975 58.5408ZM21.82 46.9243V43.9749C21.82 43.3682 21.4078 42.8435 20.8304 42.715C18.7442 42.2508 16.7748 41.4144 14.9777 40.229C14.4806 39.9007 13.8286 39.9732 13.4106 40.4017L11.3799 42.4859L7.37389 38.3744L9.4046 36.2902C9.82262 35.8612 9.89229 35.1914 9.57289 34.6813C8.41795 32.8368 7.60301 30.816 7.15066 28.6749C7.02554 28.0817 6.51431 27.6587 5.9231 27.6587H3.04949V21.8442H5.9285C6.51873 21.8442 7.02947 21.4222 7.15556 20.83C7.60988 18.6919 8.42629 16.6742 9.58172 14.8322C9.9021 14.3221 9.83194 13.6518 9.41393 13.2228L7.37389 11.129L11.3799 7.0175L13.4248 9.11632C13.8423 9.54484 14.4939 9.61685 14.9909 9.28954C16.7846 8.10921 18.7491 7.27582 20.8304 6.81255C21.4078 6.68415 21.82 6.15944 21.82 5.55266V2.57916H27.4853V5.5582C27.4853 6.16397 27.8969 6.68817 28.4739 6.81759C30.5517 7.28287 32.5137 8.11726 34.304 9.29861C34.8015 9.62692 35.4536 9.55492 35.8716 9.12589L37.9258 7.0175L41.9318 11.129L39.8776 13.2374C39.4595 13.6659 39.3894 14.3357 39.7088 14.8458C40.8598 16.6838 41.6733 18.697 42.1266 20.83C42.2527 21.4222 42.7634 21.8442 43.3537 21.8442H46.2562V24.72C44.1897 23.7476 41.8926 23.2048 39.4743 23.2048C38.9355 23.2048 38.4027 23.2325 37.8768 23.2849C37.549 20.1457 36.1826 17.2402 33.9596 15.0039C31.4559 12.4861 28.1466 11.0993 24.6411 11.0993C17.2998 11.0993 11.3274 17.2291 11.3274 24.7638C11.3274 31.8065 16.5457 37.6211 23.2222 38.3507C23.1726 38.8815 23.1461 39.4193 23.1461 39.9631C23.1461 42.4451 23.6755 44.8028 24.6229 46.9243H21.82ZM20.0262 24.7638C20.0262 27.3753 22.0966 29.4998 24.641 29.4998C27.1854 29.4998 29.2554 27.3753 29.2554 24.7638C29.2554 22.1524 27.1854 20.0279 24.641 20.0279C22.0966 20.0279 20.0262 22.1524 20.0262 24.7638ZM24.6411 17.4497C20.7112 17.4497 17.5143 20.7309 17.5143 24.7638C17.5143 28.7968 20.7112 32.078 24.6411 32.078C24.7878 32.078 24.9331 32.0719 25.0778 32.0629C24.4655 33.2336 23.9847 34.4865 23.656 35.8018C18.1599 35.2891 13.8395 30.5356 13.8395 24.7638C13.8395 18.6507 18.6849 13.6776 24.6411 13.6776C30.2127 13.6776 34.881 18.1219 35.3933 23.7351C34.1127 24.0745 32.893 24.57 31.7538 25.1999C31.7621 25.0559 31.7675 24.9104 31.7675 24.7638C31.7675 20.7309 28.5706 17.4497 24.6411 17.4497ZM39.4743 25.783C31.8563 25.783 25.6582 32.1439 25.6582 39.9631C25.6582 47.7818 31.8563 54.1433 39.4743 54.1433C47.0923 54.1433 53.2904 47.7818 53.2904 39.9631C53.2904 32.1439 47.0923 25.783 39.4743 25.783Z" fill="#86ADEF"/>
<path id="Path" d="M39.7778 34.001C39.0928 34.001 38.5376 34.5708 38.5376 35.2738C38.5376 35.9768 39.0928 36.5466 39.7778 36.5466C41.4869 36.5466 42.8777 37.9736 42.8777 39.7282C42.8777 40.4307 43.4329 41.001 44.1179 41.001C44.8029 41.001 45.3581 40.4307 45.3581 39.7282C45.3581 36.57 42.855 34.001 39.7778 34.001V34.001Z" fill="#86ADEF"/>
<path id="Path_2" d="M54.1272 52.5016C54.1272 52.8963 54.2819 53.2829 54.5554 53.5617C54.8271 53.8405 55.2045 54.001 55.5887 54.001C55.973 54.001 56.3503 53.8405 56.6221 53.5617C56.8938 53.2829 57.0503 52.8963 57.0503 52.5016C57.0503 52.1056 56.8938 51.7191 56.6221 51.4403C56.3503 51.1615 55.973 51.001 55.5887 51.001C55.2045 51.001 54.8271 51.1609 54.5554 51.4403C54.2819 51.7191 54.1272 52.1056 54.1272 52.5016Z" fill="#86ADEF"/>
</g>
</svg>
