<svg width="72" height="66" viewBox="0 0 72 66" fill="none" xmlns="http://www.w3.org/2000/svg">
<g id="toxic-waste">
<path id="Path" d="M71.2821 32.997C71.2821 32.2494 70.9668 31.5531 70.4306 31.0617V19.5288C70.9554 19.1304 71.2821 18.5033 71.2821 17.8108C71.2821 16.9237 70.7459 16.1447 69.9433 15.8155C69.7794 15.7106 69.5841 15.6501 69.3751 15.6501H46.3949V4.62042C47.0852 4.16416 47.5226 3.38679 47.5226 2.52131C47.5226 1.47581 46.8844 0.558429 45.932 0.181097C45.7632 0.0670331 45.5592 0 45.3394 0H13.9468C13.364 0 12.8913 0.470853 12.8913 1.05145C12.8913 1.63204 13.364 2.10289 13.9468 2.10289H45.0415C45.0578 2.10776 45.0741 2.11208 45.0909 2.11641C45.2797 2.16182 45.4116 2.32832 45.4116 2.52131C45.4116 2.7143 45.2797 2.88134 45.0909 2.92675C44.6177 3.04081 44.2839 3.46301 44.2839 3.94846V20.7786C44.2839 21.17 44.5016 21.529 44.8494 21.7101C45.1962 21.8912 45.4116 22.2447 45.4116 22.6329C45.4116 23.0205 45.1962 23.374 44.8494 23.5551C44.5016 23.7367 44.2839 24.0957 44.2839 24.4865V41.5129C44.2839 41.9038 44.5016 42.2627 44.8494 42.4444C45.1962 42.6255 45.4116 42.9785 45.4116 43.3666C45.4116 43.7548 45.1962 44.1083 44.8494 44.2894C44.5016 44.4705 44.2839 44.8294 44.2839 45.2208V62.051C44.2839 62.5364 44.6177 62.9586 45.0909 63.0727C45.2797 63.1187 45.4116 63.2852 45.4116 63.4781C45.4116 63.6711 45.2797 63.8376 45.0909 63.8831C45.0741 63.8874 45.0578 63.8917 45.0415 63.8966H2.68486C2.45368 63.8966 2.26484 63.7084 2.26484 63.4781C2.26484 63.2473 2.45368 63.0597 2.68649 63.0597C3.26931 63.0597 3.74197 62.5889 3.74197 62.0083V45.3657C3.74197 44.9057 3.44079 44.4986 2.99961 44.3618C2.56005 44.2256 2.26484 43.8261 2.26484 43.3671C2.26484 42.9082 2.56005 42.5082 2.99961 42.3725C3.44079 42.2357 3.74197 41.8286 3.74197 41.368V24.6319C3.74197 24.1714 3.44079 23.7643 2.99961 23.6275C2.56005 23.4918 2.26484 23.0918 2.26484 22.6329C2.26484 22.1739 2.56005 21.7739 2.99961 21.6382C3.44079 21.5014 3.74197 21.0943 3.74197 20.6338V3.99117C3.74197 3.41058 3.26822 2.93972 2.68486 2.93972C2.45368 2.93972 2.26484 2.75214 2.26484 2.52131C2.26484 2.29102 2.45368 2.10343 2.68649 2.10343H8.4268C9.00962 2.10343 9.48228 1.63258 9.48228 1.05145C9.48228 0.470853 9.00962 0 8.4268 0H2.68486C1.28913 0 0.15387 1.13091 0.15387 2.52131C0.15387 3.53708 0.759484 4.41445 1.631 4.81341V19.9677C0.723668 20.5316 0.15387 21.5252 0.15387 22.6329C0.15387 23.7405 0.723668 24.7336 1.631 25.2974V40.702C0.723668 41.2659 0.15387 42.2595 0.15387 43.3671C0.15387 44.4748 0.723668 45.4679 1.631 46.0317V61.1861C0.760027 61.585 0.15387 62.4624 0.15387 63.4787C0.15387 64.8685 1.28913 66 2.68649 66H59.3386C59.9219 66 60.3946 65.5291 60.3946 64.9486C60.3946 64.368 59.9219 63.8971 59.3386 63.8971H47.4873C47.5101 63.7603 47.5231 63.6209 47.5231 63.4787C47.5231 62.6132 47.0857 61.8358 46.3949 61.3796V49.9175H50.7151C51.2979 49.9175 51.7705 49.4466 51.7705 48.866C51.7705 48.2854 51.2979 47.8146 50.7151 47.8146H46.3949V45.776C47.1031 45.1857 47.5231 44.3105 47.5231 43.3671C47.5231 42.4238 47.1031 41.5486 46.3949 40.9588V33.836H64.7771C65.36 33.836 65.8326 33.3652 65.8326 32.7846C65.8326 32.2034 65.36 31.7326 64.7771 31.7326H46.3949V25.0417C47.1031 24.4514 47.5231 23.5762 47.5231 22.6329C47.5231 21.6895 47.1031 20.8143 46.3949 20.2245V17.7535H69.1158C69.1196 17.754 69.1234 17.7551 69.1266 17.7562C69.1391 17.7589 69.1711 17.7746 69.1711 17.8108C69.1711 17.8481 69.1391 17.8638 69.1272 17.867C68.6534 17.9811 68.3197 18.4038 68.3197 18.8893V31.5969C68.3197 31.9877 68.5373 32.3467 68.8846 32.5283C69.023 32.6008 69.1711 32.7619 69.1711 32.9976C69.1711 33.2327 69.024 33.3933 68.8868 33.4646C68.5384 33.6457 68.3197 34.0052 68.3197 34.3966V47.2534C68.3197 47.6454 68.5378 48.0043 68.8868 48.1854C68.9714 48.2297 69.0436 48.2968 69.093 48.3757C69.1451 48.4595 69.1711 48.5525 69.1711 48.6525C69.1711 48.8887 69.023 49.0498 68.8846 49.1223C68.5373 49.3039 68.3197 49.6623 68.3197 50.0532V62.7613C68.3197 63.2468 68.6534 63.6695 69.1277 63.7836C69.1434 63.7874 69.1543 63.7971 69.1575 63.802C69.1711 63.8187 69.1711 63.8328 69.1711 63.8382C69.1711 63.8755 69.1391 63.8912 69.1272 63.8944C69.1234 63.8949 69.1196 63.896 69.1158 63.8971H64.7771C64.1943 63.8971 63.7217 64.368 63.7217 64.9486C63.7217 65.5291 64.1943 66 64.7771 66H69.3751C69.5846 66 69.7794 65.9395 69.9433 65.8346C70.7459 65.5054 71.2821 64.7258 71.2821 63.8382C71.2821 63.3533 71.1149 62.8759 70.8089 62.4916C70.6982 62.3532 70.5706 62.2299 70.4306 62.1234V50.5883C70.9673 50.0969 71.2821 49.4001 71.2821 48.6525C71.2821 48.1643 71.147 47.687 70.8881 47.2686C70.7606 47.0648 70.6065 46.8799 70.4306 46.7188V34.9329C70.9668 34.442 71.2821 33.7457 71.2821 32.997V32.997Z" fill="#86ADEF"/>
<path id="Path_2" d="M66.4103 49C66.4103 48.4478 65.9431 48 65.3671 48H55.7611C55.1851 48 54.718 48.4478 54.718 49C54.718 49.5522 55.1851 50 55.7611 50H65.3671C65.9431 50 66.4103 49.5522 66.4103 49Z" fill="#86ADEF"/>
<path id="Path_3" d="M41.0769 22.1639C41.0769 21.5732 40.6014 21.0941 40.0152 21.0941H33.5668C30.9772 19.0913 27.8068 18 24.513 18C21.1139 18 17.9785 19.1551 15.4696 21.0941H9.01038C8.42412 21.0941 7.94867 21.5732 7.94867 22.1639C7.94867 22.7552 8.42412 23.2338 9.01038 23.2338H13.2239C10.9832 25.8603 9.62721 29.2734 9.62721 33C9.62721 36.7272 10.9837 40.1408 13.2245 42.7668H9.01038C8.42412 42.7668 7.94867 43.2459 7.94867 43.8366C7.94867 44.4279 8.42412 44.9065 9.01038 44.9065H15.4702C17.979 46.846 21.1145 48 24.513 48C27.8903 48 31.0465 46.8614 33.5777 44.9065H40.0146C40.6014 44.9065 41.0763 44.4279 41.0763 43.8366C41.0763 43.2459 40.6014 42.7668 40.0146 42.7668H35.8223C37.2858 41.0457 38.377 38.9725 38.9529 36.6568C39.0954 36.0831 38.7498 35.5022 38.181 35.3586C37.6128 35.2162 37.0353 35.5633 36.8928 36.1364C36.2088 38.8883 34.676 41.2393 32.6186 42.9406C32.5553 42.9824 32.4964 43.0303 32.4434 43.0842C30.2474 44.8361 27.4798 45.8603 24.5125 45.8603C17.4757 45.8603 11.7506 40.0913 11.7506 33C11.7506 25.9092 17.4757 20.1403 24.5125 20.1403C27.6938 20.1403 30.7414 21.3267 33.0935 23.4807C35.4299 25.6205 36.8917 28.5341 37.2089 31.6843C37.2684 32.2717 37.7875 32.7008 38.3726 32.6403C38.9562 32.5809 39.3809 32.0556 39.3219 31.4681C39.0135 28.4109 37.7804 25.5473 35.8076 23.2338H40.0146C40.6014 23.2338 41.0769 22.7552 41.0769 22.1639Z" fill="#86ADEF"/>
<path id="Shape" fill-rule="evenodd" clip-rule="evenodd" d="M15.1844 31.1179C14.8092 31.1179 14.4449 31.2718 14.1847 31.5406C13.9235 31.8095 13.7817 32.178 13.7958 32.5514C13.9196 35.9137 15.7091 38.9931 18.5823 40.7886C18.8037 40.9268 19.0617 40.9989 19.3207 40.9989C19.432 40.9989 19.5438 40.9859 19.6523 40.9588C20.0172 40.8688 20.3346 40.632 20.5223 40.3085L23.2018 35.6975C23.7428 35.8221 24.3068 35.8221 24.8478 35.6975L27.5279 40.3095C27.7155 40.6326 28.033 40.8699 28.3978 40.9599C28.5069 40.9865 28.6182 41 28.7294 41C28.9885 41 29.2465 40.9279 29.4679 40.7897C32.3416 38.9942 34.1316 35.9143 34.2554 32.5519C34.2696 32.178 34.1278 31.8095 33.8671 31.5406C33.6064 31.2718 33.2421 31.1179 32.8668 31.1179H27.5083C27.3458 30.5901 27.0638 30.105 26.6853 29.7018L29.3654 25.0892V25.0886C29.553 24.7662 29.6004 24.3759 29.4968 24.0177C29.3932 23.6584 29.1423 23.3527 28.8096 23.1771C27.3463 22.407 25.6921 22 24.0259 22C22.3592 22 20.7044 22.4076 19.2406 23.1782C18.9079 23.3533 18.657 23.66 18.5534 24.0193C18.4497 24.377 18.4977 24.7678 18.6853 25.0903L21.3654 29.7034C20.9875 30.1066 20.7061 30.5911 20.5435 31.1185H15.1844V31.1179ZM19.083 38.5688C17.3748 37.2648 16.2589 35.3436 15.9796 33.2261H20.5408C20.7028 33.7513 20.9875 34.2412 21.3644 34.6428L19.083 38.5688ZM23.2651 33.4819C21.5721 32.508 23.0725 29.905 24.7862 30.8621C26.4911 31.8143 24.9623 34.4607 23.2651 33.4819ZM28.9673 38.5699L26.6858 34.6439C27.0633 34.2423 27.3491 33.7518 27.5099 33.2261H32.0717C31.7924 35.3441 30.676 37.2659 28.9673 38.5699ZM27.1298 24.7195C26.1514 24.318 25.0922 24.1082 24.0259 24.1082C22.9591 24.1082 21.8989 24.3185 20.9204 24.7201L23.2007 28.6455C23.7391 28.5214 24.3106 28.5214 24.8489 28.645L27.1298 24.7195Z" fill="#86ADEF"/>
</g>
</svg>
