<svg width="51" height="64" viewBox="0 0 51 64" fill="none" xmlns="http://www.w3.org/2000/svg">
<g id="worker">
<path id="Path" d="M25.7206 39C19.5892 39 14.5462 34.0776 14.0801 27.8476C12.3035 27.4965 10.8006 26.19 10.1851 24.3794C10.0019 23.8397 10.2756 23.2473 10.7966 23.0575C11.3205 22.8713 11.8896 23.1518 12.0734 23.6909C12.5165 24.995 13.7108 25.8704 15.046 25.8704C15.598 25.8704 16.0463 26.3341 16.0463 26.9064C16.0463 32.4319 20.3868 36.9273 25.7206 36.9273C31.0556 36.9273 35.3956 32.4319 35.3956 26.9064C35.3956 26.3341 35.8439 25.8704 36.3964 25.8704C37.7247 25.8704 38.9173 24.9998 39.3639 23.7039C39.5505 23.1654 40.1242 22.8855 40.6435 23.0777C41.1634 23.2698 41.4348 23.8635 41.2493 24.4025C40.6287 26.2001 39.1297 27.4977 37.3617 27.8476C36.8968 34.0788 31.8532 39 25.7206 39Z" fill="#86ADEF"/>
<path id="Path_2" d="M39.3448 19H11.1167C10.571 19 10.1282 18.5446 10.1282 17.9827C10.1282 10.9664 14.5011 4.96049 21.0093 3.03887C21.5347 2.8863 22.0815 3.19609 22.2319 3.73648C22.3829 4.27628 22.0787 4.83937 21.5545 4.99485C16.2196 6.57116 12.5372 11.3094 12.1408 16.9648H38.3213C37.926 11.3624 34.2893 6.63813 29.0224 5.02921C28.4993 4.86965 28.2013 4.30248 28.3562 3.76443C28.5117 3.22579 29.0608 2.91542 29.585 3.0773C36.0141 5.04202 40.3333 11.0317 40.3333 17.9827C40.3333 18.5452 39.8911 19 39.3448 19Z" fill="#86ADEF"/>
<path id="Shape" fill-rule="evenodd" clip-rule="evenodd" d="M21.8207 19H28.6408C29.1788 19 29.6154 18.5426 29.6154 17.9768V1.36526C29.6154 0.884988 29.2965 0.468557 28.8493 0.36606C27.8681 0.139982 26.4815 0 25.2305 0C23.9794 0 22.5934 0.139982 21.6122 0.36606C21.165 0.467972 20.8461 0.884988 20.8461 1.36526V17.9768C20.8461 18.542 21.2827 19 21.8207 19ZM27.6663 16.953H22.7947V2.22331C24.2844 2.00133 26.1771 2.00133 27.6663 2.22331V16.953Z" fill="#86ADEF"/>
<path id="Path_3" d="M39.3587 15H34.4869C33.9494 15 33.5128 14.5525 33.5128 13.9997C33.5128 13.4475 33.9494 13 34.4869 13H39.3587C39.8968 13 40.3333 13.4475 40.3333 13.9997C40.3333 14.5525 39.8968 15 39.3587 15Z" fill="#86ADEF"/>
<path id="Path_4" d="M15.9742 15H12.0766C11.5391 15 11.1026 14.5525 11.1026 13.9997C11.1026 13.4475 11.5391 13 12.0766 13H15.9742C16.5122 13 16.9488 13.4475 16.9488 13.9997C16.9488 14.5525 16.5122 15 15.9742 15Z" fill="#86ADEF"/>
<path id="Shape_2" fill-rule="evenodd" clip-rule="evenodd" d="M8.20597 24H43.2298C43.7824 24 44.2307 23.5531 44.2307 23.0003V18.0002C44.2307 17.4475 43.7824 17 43.2298 17H8.20597C7.65342 17 7.20508 17.4475 7.20508 18.0002V23.0003C7.20508 23.5525 7.65342 24 8.20597 24ZM42.229 22.0001H9.20691V18.9999H42.229V22.0001Z" fill="#86ADEF"/>
<path id="Path_5" d="M26.3567 44C22.8284 44 19.2159 42.4102 17.1515 39.9927C16.5295 40.1037 15.9085 40.2503 15.2984 40.4276C14.7763 40.5808 14.2255 40.2952 14.0678 39.7892C13.9108 39.2826 14.2063 38.7497 14.7283 38.5976C15.6148 38.3383 16.5227 38.1414 17.4266 38.0095C17.7916 37.9597 18.1605 38.1074 18.3769 38.4007C19.9747 40.5715 23.2572 42.088 26.3572 42.088C29.2821 42.088 31.9488 40.7449 33.6748 38.4056C33.8907 38.1124 34.2585 37.9619 34.6263 38.0161C35.3184 38.1173 36.0093 38.2584 36.6805 38.4346C37.2071 38.5719 37.5178 39.0977 37.376 39.6075C37.2331 40.1169 36.6918 40.4216 36.1647 40.2793C35.7511 40.171 35.3297 40.0775 34.9042 40.0003C32.8014 42.5502 29.72 44 26.3567 44V44Z" fill="#86ADEF"/>
<path id="Path_6" d="M49.103 60H39.3592C38.8212 60 38.3846 59.5392 38.3846 58.9706C38.3846 58.4015 38.8212 57.9407 39.3592 57.9407H48.1284V56.6662C48.1284 50.5938 45.2332 45.0759 40.3828 41.9065C39.9256 41.6078 39.7835 40.9726 40.0667 40.4883C40.3493 40.0051 40.9509 39.8543 41.4081 40.1548C46.8366 43.703 50.077 49.875 50.077 56.6668V58.9712C50.077 59.5398 49.6404 60 49.103 60V60Z" fill="#86ADEF"/>
<path id="Path_7" d="M11.1135 60H1.34807C0.816202 60 0.384644 59.548 0.384644 58.9901V56.7294C0.384644 50.6199 3.43531 44.8053 8.54402 41.1739C8.9855 40.8612 9.58405 40.9815 9.88168 41.4439C10.1799 41.9058 10.0652 42.533 9.62484 42.8468C5.04525 46.1019 2.31095 51.291 2.31095 56.73V57.9803H11.1135C11.6454 57.9803 12.077 58.4323 12.077 58.9907C12.077 59.5485 11.6454 60 11.1135 60Z" fill="#86ADEF"/>
<path id="Shape_3" fill-rule="evenodd" clip-rule="evenodd" d="M11.7297 64H37.7572C38.2672 64 38.6954 63.612 38.7508 63.0993L41.3017 39.3328C41.3337 39.0384 41.2348 38.7451 41.033 38.5297L38.0088 35.3143C37.7727 35.0631 37.4274 34.9529 37.0918 35.0187C36.7562 35.0857 36.4778 35.3201 36.3531 35.6423L31.6327 47.8555H17.8543L13.1338 35.6423C13.0092 35.3207 12.7307 35.0862 12.3952 35.0187C12.0601 34.9529 11.7148 35.0631 11.4782 35.3143L8.4539 38.5297C8.25209 38.7451 8.15376 39.0384 8.1852 39.3328L10.7367 63.0993C10.7916 63.6114 11.2198 64 11.7297 64ZM36.8608 61.9821H12.6261L10.2222 39.5805L11.8446 37.8559L16.241 49.2313C16.3907 49.6182 16.7601 49.8734 17.1717 49.8734H32.3153C32.7269 49.8734 33.0962 49.6187 33.246 49.2313L37.6423 37.8559L39.2648 39.5805L36.8608 61.9821Z" fill="#86ADEF"/>
</g>
</svg>
