<svg width="42" height="70" viewBox="0 0 42 70" fill="none" xmlns="http://www.w3.org/2000/svg">
<g id="fire-extinguisher">
<path id="Shape" fill-rule="evenodd" clip-rule="evenodd" d="M41.2711 1.35279C41.0053 1.14115 40.6585 1.06594 40.3312 1.14949L25.2991 4.98132C24.6744 2.13455 22.1782 0 19.2006 0C16.128 0 13.5679 2.27306 13.0482 5.25626H8.49774C4.23616 5.25626 0.769165 8.67062 0.769165 12.8673C0.769165 13.4844 1.25965 13.9844 1.86465 13.9844C2.46965 13.9844 2.96013 13.4844 2.96013 12.8673C2.96013 9.90247 5.44426 7.4903 8.49774 7.4903H12.9501V9.72434H8.49774C7.89274 9.72434 7.40225 10.2243 7.40225 10.8414C7.40225 11.4584 7.89274 11.9584 8.49774 11.9584H12.9501V17.9492C10.4849 19.0982 8.37826 20.8978 6.82544 23.1891C5.08815 25.7526 4.16984 28.7602 4.16984 31.8869V68.883C4.16984 69.5 4.66033 70 5.26533 70H33.1358C33.7408 70 34.2313 69.5 34.2313 68.883V31.8869C34.2313 28.7602 33.313 25.7526 31.5757 23.1891C30.0228 20.8978 27.9162 19.0982 25.451 17.9492V13.9331L40.3312 17.7262C40.419 17.7486 40.5081 17.7596 40.5968 17.7596C40.8386 17.7596 41.0764 17.6778 41.271 17.5229C41.5368 17.3113 41.6922 16.9865 41.6922 16.6426V2.23315C41.6924 1.88926 41.537 1.56443 41.2711 1.35279ZM19.2007 2.23407C21.4391 2.23407 23.2601 4.09101 23.2601 6.3733V17.569H15.1412V6.3733C15.1412 4.09101 16.9622 2.23407 19.2007 2.23407ZM6.36084 60.8176V67.7659H32.0403V60.8176H6.36084ZM31.993 30.7699H14.0292C13.4242 30.7699 12.9337 31.2699 12.9337 31.8869C12.9337 32.504 13.4242 33.0039 14.0292 33.0039H32.0403V58.5836H6.36084V33.0039H9.64729C10.2523 33.0039 10.7428 32.504 10.7428 31.8869C10.7428 31.2699 10.2523 30.7699 9.64729 30.7699H6.40816C6.80794 25.9111 9.79701 21.7003 14.266 19.803H24.1351C28.6041 21.7003 31.5932 25.9111 31.993 30.7699ZM25.4511 11.6304L39.5015 15.212V3.66382L25.4511 7.24544V11.6304Z" fill="#86ADEF"/>
<path id="Shape_2" fill-rule="evenodd" clip-rule="evenodd" d="M18.7947 56C16.4795 56 14.4569 55.172 12.9455 53.6055C11.3814 51.9845 10.4949 49.6781 10.513 47.2776C10.5465 42.8277 13.6137 38.8511 13.7442 38.6839C13.956 38.4126 14.2804 38.2571 14.6176 38.2703C14.9558 38.2809 15.2695 38.4542 15.4648 38.7384L15.6817 39.0539C16.2095 37.871 16.9912 36.4279 18.0213 35.3365C18.2243 35.1214 18.5034 35 18.7947 35C19.0861 35 19.3652 35.1214 19.5682 35.3365C20.5984 36.4277 21.3799 37.8708 21.9077 39.0539L22.1246 38.7383C22.3199 38.4542 22.6335 38.2809 22.9717 38.2703C23.3093 38.2574 23.6333 38.4126 23.8452 38.6839C23.9758 38.8511 27.043 42.8277 27.0765 47.2776C27.0945 49.6779 26.208 51.9844 24.644 53.6055C23.1327 55.1719 21.11 56 18.7947 56ZM14.8561 41.6934L14.5994 41.3201C13.7938 42.6726 12.6866 44.9535 12.6689 47.2949C12.6553 49.1083 13.314 50.8393 14.4759 52.0436C15.5736 53.1815 17.067 53.7827 18.7949 53.7827C20.5228 53.7827 22.0162 53.1812 23.1139 52.0436C24.2758 50.8393 24.9344 49.1083 24.9207 47.2949C24.9032 44.9536 23.7962 42.673 22.9904 41.3201L22.7338 41.6932L22.7338 41.6933C22.4162 42.1549 22.2712 42.3657 21.8473 42.451C21.329 42.5552 20.8146 42.2588 20.6302 41.7506C20.627 41.7419 20.6186 41.7172 20.6058 41.6777C20.4126 41.0828 19.7927 39.3219 18.7949 37.8556C17.7971 39.3218 17.1772 41.0828 16.984 41.6777C16.9712 41.7172 16.9628 41.7417 16.9596 41.7506C16.8103 42.162 16.4389 42.4441 16.0127 42.4698C15.4146 42.5026 15.1683 42.1472 14.8561 41.6934Z" fill="#86ADEF"/>
</g>
</svg>
