<svg width="66" height="64" viewBox="0 0 66 64" fill="none" xmlns="http://www.w3.org/2000/svg">
<g id="factory">
<path id="Path" d="M51.2307 13C51.4869 13 51.7381 12.893 51.9192 12.707C52.1008 12.5211 52.2051 12.2633 52.2051 12C52.2051 11.7371 52.1008 11.4793 51.9192 11.293C51.7381 11.107 51.4869 11 51.2307 11C50.9734 11 50.723 11.107 50.5407 11.293C50.3595 11.4793 50.2563 11.7371 50.2563 12C50.2563 12.2633 50.3595 12.5211 50.5407 12.707C50.723 12.893 50.9734 13 51.2307 13Z" fill="#86ADEF"/>
<path id="Shape" fill-rule="evenodd" clip-rule="evenodd" d="M54.7154 18.647L65.1708 24.1128C65.5866 24.3301 65.8461 24.7539 65.8461 25.2158V62.75C65.8461 63.4404 65.2754 64 64.5711 64H1.83913C1.13487 64 0.564087 63.4404 0.564087 62.75V19.75C0.564087 19.0596 1.13487 18.5 1.83913 18.5V12.6201C1.83913 8.86084 4.95899 5.80225 8.79308 5.80225H12.2969C13.2288 4.9375 14.4306 4.47314 15.6997 4.49805C15.9657 4.50293 16.2282 4.52881 16.4857 4.57471C18.0461 1.79785 21.0768 0 24.3625 0C28.1508 0 31.5197 2.36768 32.7982 5.77881C32.9949 5.76074 33.1927 5.75146 33.3914 5.75146C36.4256 5.75146 38.9652 7.8667 39.5564 10.6724H45.3663C46.0706 10.6724 46.6413 11.2319 46.6413 11.9224C46.6413 12.6128 46.0706 13.1724 45.3663 13.1724H38.4109C37.7066 13.1724 37.1358 12.6128 37.1358 11.9224C37.1358 9.89844 35.4559 8.25146 33.3914 8.25146C33.0273 8.25146 32.6687 8.30371 32.3245 8.40381C31.817 8.55176 31.3384 8.80811 30.9364 9.15039C30.6022 9.43555 30.3243 9.77197 30.1107 10.1504C29.8786 10.563 29.4427 10.7959 28.994 10.7959C28.7853 10.7959 28.5736 10.7456 28.3784 10.6396C27.7618 10.3062 27.5382 9.54541 27.8788 8.94141C28.2369 8.30566 28.7026 7.74121 29.2634 7.26367C29.5986 6.97803 29.9667 6.729 30.3562 6.51855C29.4084 4.14111 27.0311 2.5 24.3625 2.5C21.7188 2.5 19.3052 4.12549 18.3569 6.54443C18.2289 6.87061 17.9674 7.12939 17.6362 7.2583C17.3045 7.38672 16.9334 7.37354 16.6122 7.22168C16.3113 7.07959 15.9876 7.00391 15.6504 6.99756C15.0433 6.98877 14.464 7.21729 14.0158 7.64795C13.5501 8.09619 13.2826 8.71631 13.2826 9.34961C13.2826 10.604 14.3241 11.625 15.6036 11.625H20.4179C21.1221 11.625 21.6929 12.1846 21.6929 12.875C21.6929 13.5654 21.1221 14.125 20.4179 14.125H15.6036C12.918 14.125 10.7325 11.9829 10.7325 9.34961C10.7325 8.99609 10.7744 8.64502 10.8521 8.30225H8.79308C6.36502 8.30225 4.38921 10.2393 4.38921 12.6201V18.5H6.64095V16.73C6.64095 15.0522 8.03303 13.6875 9.74438 13.6875C10.4486 13.6875 11.0194 14.2471 11.0194 14.9375C11.0194 15.6279 10.4486 16.1875 9.74438 16.1875C9.43906 16.1875 9.19103 16.4307 9.19103 16.73V18.5H11.0194C11.7237 18.5 12.2945 19.0596 12.2945 19.75V33.5H31.9301V19.75C31.9301 19.311 32.1652 18.9038 32.5492 18.6782C32.9332 18.4521 33.4098 18.4404 33.8048 18.647L42.3854 23.1328V19.75C42.3854 19.311 42.6205 18.9043 43.0045 18.6782C43.3885 18.4521 43.8651 18.4404 44.2601 18.647L52.8407 23.1328V19.75C52.8407 19.311 53.0758 18.9038 53.4598 18.6782C53.8438 18.4521 54.3205 18.4404 54.7154 18.647ZM9.74449 26H3.11428V56.5H9.74449V26ZM9.74449 23.5H3.11428V21H9.74449V23.5ZM9.74449 59H3.11428V61.5H9.74449V59ZM33.2051 61.5H12.2944V41H23.7698C24.474 41 25.0448 40.4404 25.0448 39.75C25.0448 39.0596 24.474 38.5 23.7698 38.5H12.2944V36H50.5456V61.5H33.2051ZM53.0957 61.5H63.296V25.9653L55.3908 21.833V25.2153C55.3908 25.6548 55.1557 26.0615 54.7717 26.2876C54.3877 26.5132 53.911 26.5254 53.5161 26.3184L44.9355 21.833V25.2158C44.9355 25.6548 44.7004 26.0615 44.3164 26.2876C43.9324 26.5132 43.4557 26.5254 43.0607 26.3188L34.4801 21.833V33.5H51.8207C52.5249 33.5 53.0957 34.0596 53.0957 34.75V61.5Z" fill="#86ADEF"/>
<path id="Shape_2" fill-rule="evenodd" clip-rule="evenodd" d="M15.4947 44H21.6847C22.397 44 22.9743 44.5925 22.9743 45.3235V51.6765C22.9743 52.4075 22.397 53 21.6847 53H15.4947C14.7824 53 14.2051 52.4075 14.2051 51.6765V45.3235C14.2051 44.5925 14.7824 44 15.4947 44ZM16.7844 50.353H20.3952V46.6471H16.7844V50.353Z" fill="#86ADEF"/>
<path id="Shape_3" fill-rule="evenodd" clip-rule="evenodd" d="M28.1613 44H34.3513C35.0636 44 35.6409 44.5925 35.6409 45.3235V51.6765C35.6409 52.4075 35.0636 53 34.3513 53H28.1613C27.449 53 26.8717 52.4075 26.8717 51.6765V45.3235C26.8717 44.5925 27.449 44 28.1613 44ZM29.451 50.353H33.0619V46.6471H29.451V50.353Z" fill="#86ADEF"/>
<path id="Shape_4" fill-rule="evenodd" clip-rule="evenodd" d="M40.8282 44H47.0182C47.7305 44 48.3078 44.5925 48.3078 45.3235V51.6765C48.3078 52.4075 47.7305 53 47.0182 53H40.8282C40.1159 53 39.5386 52.4075 39.5386 51.6765V45.3235C39.5386 44.5925 40.1159 44 40.8282 44ZM42.1177 50.353H45.7285V46.6471H42.1177V50.353Z" fill="#86ADEF"/>
<path id="Path_2" d="M27.8461 40C28.1022 40 28.3534 39.893 28.5346 39.707C28.7161 39.5211 28.8204 39.2629 28.8204 39C28.8204 38.7371 28.7161 38.4789 28.5346 38.293C28.3534 38.107 28.1022 38 27.8461 38C27.5888 38 27.3383 38.107 27.1572 38.293C26.9748 38.4789 26.8717 38.7371 26.8717 39C26.8717 39.2629 26.9748 39.5211 27.1572 39.707C27.3383 39.893 27.5895 40 27.8461 40Z" fill="#86ADEF"/>
</g>
</svg>
