<svg width="61" height="70" viewBox="0 0 61 70" fill="none" xmlns="http://www.w3.org/2000/svg">
<g id="engineer">
<path id="Shape" fill-rule="evenodd" clip-rule="evenodd" d="M59.6466 33.2102L56.9495 32.0122V30.1075C56.9873 18.4167 49.8454 7.98594 39.1604 4.12798V1.4435C39.1604 0.646662 38.5343 0 37.7632 0H22.8106C22.0395 0 21.4134 0.646662 21.4134 1.4435V4.14216C10.7284 8.00013 3.58644 18.4309 3.62433 30.1217V32.0411L0.95509 33.2102C0.437913 33.4357 0.1026 33.9596 0.1026 34.5382V42.1157C0.1026 42.9121 0.728706 43.5587 1.50021 43.5587H3.31696V46.4457C3.31696 47.2421 3.94259 47.8887 4.7141 47.8887H9.731C10.2074 49.6957 10.9074 51.4336 11.813 53.0557L8.26377 56.7219C7.72149 57.2844 7.72149 58.1938 8.26377 58.7568L14.2028 64.8908C14.7474 65.4509 15.6279 65.4509 16.173 64.8908L19.7222 61.2251C21.2889 62.1603 22.9659 62.8818 24.7111 63.3754V68.557C24.7111 69.3533 25.3372 70 26.1087 70H34.493C35.2645 70 35.8906 69.3533 35.8906 68.557V63.3754C37.6401 62.8833 39.3223 62.1618 40.8933 61.2251L44.443 64.8908C44.9876 65.4509 45.868 65.4509 46.4132 64.8908L52.3522 58.7568C52.8944 58.1938 52.8944 57.2844 52.3522 56.7219L48.8025 53.0557C49.708 51.4336 50.4085 49.6957 50.8849 47.8887H55.9014C56.6729 47.8887 57.299 47.2421 57.299 46.4457V43.5587H59.1157C59.8872 43.5587 60.5129 42.9121 60.5129 42.1157V34.5382C60.51 33.9552 60.1681 33.4313 59.6466 33.2102ZM24.1802 2.90112H36.3656V27.0184H24.2081L24.1802 2.90112ZM49.8647 45.0022H54.5179L54.5042 43.5587H41.7178C41.0803 48.9913 36.9344 53.2724 31.6745 53.9317C25.3609 54.7242 19.6217 50.0796 18.8559 43.5587H6.08371V45.0022H10.7369C11.4075 44.9861 11.9929 45.4654 12.1345 46.1419C12.6218 48.395 13.5023 50.537 14.7336 52.4638C15.0926 53.0341 15.0159 53.786 14.5518 54.2678L11.2119 57.7173L15.1665 61.8022L18.5064 58.3527C18.9734 57.8733 19.7013 57.7941 20.2535 58.1649C22.1299 59.4264 24.2138 60.3211 26.4018 60.8063C27.0573 60.9521 27.5215 61.5567 27.5058 62.2493V67.1565H33.0953V62.2929C33.0802 61.6002 33.5438 60.9951 34.1993 60.8494C36.3878 60.3631 38.4712 59.468 40.3481 58.2084C40.9003 57.8371 41.6283 57.9169 42.0948 58.3958L45.4346 61.8453L49.4314 57.7462L46.0915 54.2966C45.6279 53.8148 45.5507 53.063 45.9101 52.4926C47.1301 50.5541 47.9964 48.4023 48.4671 46.1419C48.6083 45.4654 49.1941 44.9861 49.8647 45.0022ZM21.7065 43.5587H38.9088C38.1402 48.4688 33.6627 51.8059 28.9091 51.012C25.2003 50.3927 22.2924 47.3893 21.6928 43.5587H21.7065ZM2.88352 40.6722H57.7318V35.5194L55.035 34.3215C54.5179 34.0965 54.1826 33.5726 54.1826 32.9939V30.1069C54.2219 20.0142 48.2729 10.9242 39.1882 7.20178V28.4619C39.1882 29.2583 38.5621 29.9049 37.7906 29.9049H22.8105C22.039 29.9049 21.4133 29.2583 21.4133 28.4619V7.20178C12.3438 10.9257 6.40193 19.9981 6.43272 30.0781V32.9646C6.43272 33.5437 6.0974 34.0676 5.58023 34.2926L2.88352 35.4906V40.6722Z" fill="#86ADEF"/>
</g>
</svg>
